<mxfile host="app.diagrams.net" modified="2023-07-04T20:49:51.395Z" agent="Mozilla/5.0 (Windows NT 10.0; Win64; x64) AppleWebKit/537.36 (KHTML, like Gecko) Chrome/114.0.0.0 Safari/537.36 Edg/114.0.1823.67" etag="SMM0_-LmKr3woQdI35Ln" version="21.5.0" type="device">
  <diagram name="Page-1" id="G8OSm5LgYEmLATx5oIpZ">
    <mxGraphModel dx="2194" dy="840" grid="0" gridSize="10" guides="1" tooltips="1" connect="1" arrows="1" fold="1" page="1" pageScale="1" pageWidth="850" pageHeight="1100" math="0" shadow="0">
      <root>
        <mxCell id="0" />
        <mxCell id="1" parent="0" />
        <mxCell id="9znv51h8t2XqrF382X9H-1" value="12100" style="rounded=0;whiteSpace=wrap;html=1;fontStyle=1;fontColor=#0000CC;fontSize=17;" vertex="1" parent="1">
          <mxGeometry x="-117" y="232" width="80" height="40" as="geometry" />
        </mxCell>
        <mxCell id="9znv51h8t2XqrF382X9H-2" value="0012" style="rounded=0;whiteSpace=wrap;html=1;fontStyle=1;fontColor=#0000CC;fontSize=17;" vertex="1" parent="1">
          <mxGeometry x="-37" y="232" width="80" height="40" as="geometry" />
        </mxCell>
        <mxCell id="9znv51h8t2XqrF382X9H-6" value="12" style="rounded=0;whiteSpace=wrap;html=1;fontStyle=1;fontColor=#0000CC;fontSize=17;" vertex="1" parent="1">
          <mxGeometry x="43" y="232" width="80" height="40" as="geometry" />
        </mxCell>
        <mxCell id="9znv51h8t2XqrF382X9H-7" value="222112" style="rounded=0;whiteSpace=wrap;html=1;fontStyle=1;fontColor=#0000CC;fontSize=17;" vertex="1" parent="1">
          <mxGeometry x="123" y="232" width="80" height="40" as="geometry" />
        </mxCell>
        <mxCell id="9znv51h8t2XqrF382X9H-8" value="11111111" style="rounded=0;whiteSpace=wrap;html=1;fontStyle=1;fontColor=#0000CC;fontSize=17;" vertex="1" parent="1">
          <mxGeometry x="203" y="232" width="80" height="40" as="geometry" />
        </mxCell>
        <mxCell id="9znv51h8t2XqrF382X9H-9" value="22101" style="rounded=0;whiteSpace=wrap;html=1;fontColor=#CC0066;fontStyle=1;fontSize=17;" vertex="1" parent="1">
          <mxGeometry x="-117" y="362" width="80" height="40" as="geometry" />
        </mxCell>
        <mxCell id="9znv51h8t2XqrF382X9H-10" value="2222" style="rounded=0;whiteSpace=wrap;html=1;fontColor=#CC0066;fontStyle=1;fontSize=17;" vertex="1" parent="1">
          <mxGeometry x="-37" y="362" width="80" height="40" as="geometry" />
        </mxCell>
        <mxCell id="9znv51h8t2XqrF382X9H-11" value="22" style="rounded=0;whiteSpace=wrap;html=1;fontColor=#CC0066;fontStyle=1;fontSize=17;" vertex="1" parent="1">
          <mxGeometry x="43" y="362" width="80" height="40" as="geometry" />
        </mxCell>
        <mxCell id="9znv51h8t2XqrF382X9H-12" value="111212" style="rounded=0;whiteSpace=wrap;html=1;fontColor=#CC0066;fontStyle=1;fontSize=17;" vertex="1" parent="1">
          <mxGeometry x="123" y="362" width="80" height="40" as="geometry" />
        </mxCell>
        <mxCell id="9znv51h8t2XqrF382X9H-13" value="11112112" style="rounded=0;whiteSpace=wrap;html=1;fontColor=#CC0066;fontStyle=1;fontSize=17;" vertex="1" parent="1">
          <mxGeometry x="203" y="362" width="80" height="40" as="geometry" />
        </mxCell>
        <mxCell id="9znv51h8t2XqrF382X9H-32" value="12100" style="rounded=0;whiteSpace=wrap;html=1;fontStyle=1;fontColor=#0000CC;fontSize=17;" vertex="1" parent="1">
          <mxGeometry x="343" y="232" width="80" height="40" as="geometry" />
        </mxCell>
        <mxCell id="9znv51h8t2XqrF382X9H-33" value="&lt;font color=&quot;#cc0066&quot;&gt;2&lt;/font&gt;0&lt;font color=&quot;#cc0066&quot;&gt;2&lt;/font&gt;2" style="rounded=0;whiteSpace=wrap;html=1;fontStyle=1;fontColor=#0000CC;fontSize=17;" vertex="1" parent="1">
          <mxGeometry x="423" y="232" width="80" height="40" as="geometry" />
        </mxCell>
        <mxCell id="9znv51h8t2XqrF382X9H-34" value="12" style="rounded=0;whiteSpace=wrap;html=1;fontStyle=1;fontColor=#0000CC;fontSize=17;" vertex="1" parent="1">
          <mxGeometry x="503" y="232" width="80" height="40" as="geometry" />
        </mxCell>
        <mxCell id="9znv51h8t2XqrF382X9H-35" value="22&lt;font color=&quot;#cc0066&quot;&gt;1&lt;/font&gt;112" style="rounded=0;whiteSpace=wrap;html=1;fontStyle=1;fontColor=#0000CC;fontSize=17;" vertex="1" parent="1">
          <mxGeometry x="583" y="232" width="80" height="40" as="geometry" />
        </mxCell>
        <mxCell id="9znv51h8t2XqrF382X9H-36" value="1111&lt;font color=&quot;#cc0066&quot;&gt;2&lt;/font&gt;111" style="rounded=0;whiteSpace=wrap;html=1;fontStyle=1;fontColor=#0000CC;fontSize=17;" vertex="1" parent="1">
          <mxGeometry x="663" y="232" width="80" height="40" as="geometry" />
        </mxCell>
        <mxCell id="9znv51h8t2XqrF382X9H-37" value="22101" style="rounded=0;whiteSpace=wrap;html=1;fontColor=#CC0066;fontStyle=1;fontSize=17;" vertex="1" parent="1">
          <mxGeometry x="343" y="362" width="80" height="40" as="geometry" />
        </mxCell>
        <mxCell id="9znv51h8t2XqrF382X9H-38" value="&lt;font color=&quot;#0000cc&quot;&gt;0&lt;/font&gt;2&lt;font color=&quot;#0000cc&quot;&gt;1&lt;/font&gt;2" style="rounded=0;whiteSpace=wrap;html=1;fontColor=#CC0066;fontStyle=1;fontSize=17;" vertex="1" parent="1">
          <mxGeometry x="423" y="362" width="80" height="40" as="geometry" />
        </mxCell>
        <mxCell id="9znv51h8t2XqrF382X9H-39" value="22" style="rounded=0;whiteSpace=wrap;html=1;fontColor=#CC0066;fontStyle=1;fontSize=17;" vertex="1" parent="1">
          <mxGeometry x="503" y="362" width="80" height="40" as="geometry" />
        </mxCell>
        <mxCell id="9znv51h8t2XqrF382X9H-40" value="11&lt;font color=&quot;#0000cc&quot;&gt;2&lt;/font&gt;212" style="rounded=0;whiteSpace=wrap;html=1;fontColor=#CC0066;fontStyle=1;fontSize=17;" vertex="1" parent="1">
          <mxGeometry x="583" y="362" width="80" height="40" as="geometry" />
        </mxCell>
        <mxCell id="9znv51h8t2XqrF382X9H-41" value="1111&lt;font color=&quot;#0000cc&quot;&gt;1&lt;/font&gt;112" style="rounded=0;whiteSpace=wrap;html=1;fontColor=#CC0066;fontStyle=1;fontSize=17;" vertex="1" parent="1">
          <mxGeometry x="663" y="362" width="80" height="40" as="geometry" />
        </mxCell>
        <mxCell id="9znv51h8t2XqrF382X9H-46" value="" style="shape=flexArrow;endArrow=classic;html=1;rounded=0;fillColor=#e1d5e7;strokeColor=#9673a6;" edge="1" parent="1">
          <mxGeometry width="50" height="50" relative="1" as="geometry">
            <mxPoint x="278" y="316" as="sourcePoint" />
            <mxPoint x="358" y="316" as="targetPoint" />
          </mxGeometry>
        </mxCell>
        <mxCell id="9znv51h8t2XqrF382X9H-48" value="" style="endArrow=classic;startArrow=classic;html=1;rounded=0;exitX=0.313;exitY=0.4;exitDx=0;exitDy=0;exitPerimeter=0;" edge="1" parent="1" source="9znv51h8t2XqrF382X9H-10">
          <mxGeometry width="50" height="50" relative="1" as="geometry">
            <mxPoint x="90" y="375" as="sourcePoint" />
            <mxPoint x="-12" y="258" as="targetPoint" />
          </mxGeometry>
        </mxCell>
        <mxCell id="9znv51h8t2XqrF382X9H-49" value="" style="endArrow=classic;startArrow=classic;html=1;rounded=0;exitX=0.313;exitY=0.4;exitDx=0;exitDy=0;exitPerimeter=0;" edge="1" parent="1">
          <mxGeometry width="50" height="50" relative="1" as="geometry">
            <mxPoint x="8" y="378" as="sourcePoint" />
            <mxPoint x="8" y="258" as="targetPoint" />
          </mxGeometry>
        </mxCell>
        <mxCell id="9znv51h8t2XqrF382X9H-50" value="" style="endArrow=classic;startArrow=classic;html=1;rounded=0;exitX=0.313;exitY=0.4;exitDx=0;exitDy=0;exitPerimeter=0;" edge="1" parent="1">
          <mxGeometry width="50" height="50" relative="1" as="geometry">
            <mxPoint x="158" y="378" as="sourcePoint" />
            <mxPoint x="158" y="258" as="targetPoint" />
          </mxGeometry>
        </mxCell>
        <mxCell id="9znv51h8t2XqrF382X9H-51" value="" style="endArrow=classic;startArrow=classic;html=1;rounded=0;exitX=0.313;exitY=0.4;exitDx=0;exitDy=0;exitPerimeter=0;" edge="1" parent="1">
          <mxGeometry width="50" height="50" relative="1" as="geometry">
            <mxPoint x="247" y="377" as="sourcePoint" />
            <mxPoint x="247" y="257" as="targetPoint" />
          </mxGeometry>
        </mxCell>
      </root>
    </mxGraphModel>
  </diagram>
</mxfile>
